<?xml version="1.0" encoding="UTF-8" standalone="no"?>
<!-- Created with Inkscape (http://www.inkscape.org/) -->

<svg
   xmlns:dc="http://purl.org/dc/elements/1.1/"
   xmlns:cc="http://creativecommons.org/ns#"
   xmlns:rdf="http://www.w3.org/1999/02/22-rdf-syntax-ns#"
   xmlns:svg="http://www.w3.org/2000/svg"
   xmlns="http://www.w3.org/2000/svg"
   xmlns:sodipodi="http://sodipodi.sourceforge.net/DTD/sodipodi-0.dtd"
   xmlns:inkscape="http://www.inkscape.org/namespaces/inkscape"
   width="223.22835"
   height="223.22835"
   id="svg5833"
   version="1.1"
   inkscape:version="0.48.3.1 r9886"
   sodipodi:docname="sticker.svg">
  <defs
     id="defs5835" />
  <sodipodi:namedview
     id="base"
     pagecolor="#ffffff"
     bordercolor="#666666"
     borderopacity="1.0"
     inkscape:pageopacity="0.0"
     inkscape:pageshadow="2"
     inkscape:zoom="1.4"
     inkscape:cx="69.284509"
     inkscape:cy="57.649583"
     inkscape:document-units="mm"
     inkscape:current-layer="layer1"
     showgrid="false"
     units="mm"
     showguides="true"
     inkscape:guide-bbox="true"
     inkscape:window-width="1280"
     inkscape:window-height="937"
     inkscape:window-x="0"
     inkscape:window-y="27"
     inkscape:window-maximized="1">
    <sodipodi:guide
       orientation="0,1"
       position="48.571429,205.85489"
       id="guide5841" />
    <sodipodi:guide
       orientation="1,0"
       position="17.716535,275.71535"
       id="guide5843" />
    <sodipodi:guide
       orientation="0,1"
       position="83.571429,17.716535"
       id="guide5864" />
    <sodipodi:guide
       orientation="1,0"
       position="205.51181,126.42874"
       id="guide5866" />
  </sodipodi:namedview>
  <metadata
     id="metadata5838">
    <rdf:RDF>
      <cc:Work
         rdf:about="">
        <dc:format>image/svg+xml</dc:format>
        <dc:type
           rdf:resource="http://purl.org/dc/dcmitype/StillImage" />
        <dc:title></dc:title>
      </cc:Work>
    </rdf:RDF>
  </metadata>
  <g
     inkscape:label="Layer 1"
     inkscape:groupmode="layer"
     id="layer1"
     transform="translate(0,-829.13384)">
    <g
       style="display:inline"
       id="g4017-5-4"
       transform="matrix(0.6541799,0,0,0.6541799,319.80299,522.96031)">
      <g
         id="g3071-3-3"
         transform="matrix(0.84756058,0,0,0.84756058,-675.67807,445.8325)"
         style="display:inline">
        <path
           id="path3073-6-6"
           d="m 358.84,319.001 c 2.534,-0.458 3.73,0.913 4.08,1.44 4.461,6.72 -9.755,9.021 -7.2,0.959 0.254,-0.8 1.239,-2.059 3.12,-2.399 z"
           clip-rule="evenodd"
           inkscape:connector-curvature="0"
           style="fill:#ffffff;fill-rule:evenodd" />
        <path
           id="path3075-4-2"
           d="m 464.68,319.001 c 2.332,-0.351 4.256,0.733 4.561,3.12 0.336,2.623 -1.615,4.299 -2.641,4.56 -5.264,1.34 -7.76,-6.804 -1.92,-7.68 z"
           clip-rule="evenodd"
           inkscape:connector-curvature="0"
           style="fill:#ffffff;fill-rule:evenodd" />
        <path
           id="path3077-5-7"
           d="m 411.161,350.441 c -0.122,7.573 -5.28,12.51 -10.561,16.319 -5.424,3.914 -12.251,6.682 -20.4,6.48 -14.252,-0.353 -26.721,-9.202 -29.28,-22.081 5.657,-2.718 13.179,-2.521 20.88,-2.879 13.409,-0.623 28.465,-0.284 39.361,2.161 z"
           clip-rule="evenodd"
           inkscape:connector-curvature="0"
           style="fill:#ffffff;fill-rule:evenodd" />
        <path
           id="path3079-3-4"
           d="m 491.08,351.16 c -2.389,12.662 -14.719,21.543 -29.039,22.081 -8.199,0.308 -15.113,-2.521 -20.641,-6.48 -5.297,-3.796 -10.422,-8.745 -10.561,-16.319 5.99,-1.678 13.293,-1.808 20.881,-2.16 13.778,-0.641 29.063,-0.717 39.36,2.878 z"
           clip-rule="evenodd"
           inkscape:connector-curvature="0"
           style="fill:#ffffff;fill-rule:evenodd" />
        <path
           id="path3097-6-6"
           d="m 466.6,344.681 c -12.195,0 -25.271,-0.104 -34.318,2.16 -1.488,0.372 -2.982,0.755 -3.842,2.16 -2.988,-3.112 -11.535,-3.681 -14.639,-0.24 -8.534,-4.157 -22.316,-4.08 -35.28,-4.08 -13.017,0 -26.517,0.251 -34.8,4.08 -0.563,0.261 -1.713,1.942 -1.48,3.12 3.793,14.406 19.75,25.989 38.68,24.72 16.337,-1.095 29.831,-11.495 32.64,-25.92 2.742,-0.716 5.594,-2.065 8.879,-1.68 2.406,0.282 4.338,1.674 6.24,2.159 0.074,1.766 0.328,3.428 0.961,5.041 4.578,11.691 20.354,21.591 36.721,20.399 16.006,-1.165 29.104,-11.106 32.398,-24.96 0.082,-0.029 -0.078,-2.961 -0.238,-2.88 -7.297,-3.685 -19.653,-4.079 -31.922,-4.079 z m -66,22.08 c -5.424,3.914 -12.251,6.682 -20.4,6.48 -14.252,-0.353 -26.721,-9.202 -29.28,-22.081 5.657,-2.718 13.179,-2.521 20.88,-2.879 13.409,-0.624 28.465,-0.285 39.36,2.16 -0.121,7.574 -5.28,12.51 -10.56,16.32 z m 61.441,6.48 c -8.199,0.308 -15.113,-2.521 -20.641,-6.48 -5.297,-3.796 -10.422,-8.745 -10.561,-16.319 5.99,-1.678 13.293,-1.808 20.881,-2.16 13.777,-0.641 29.063,-0.716 39.359,2.879 -2.388,12.661 -14.718,21.542 -29.038,22.08 z"
           clip-rule="evenodd"
           inkscape:connector-curvature="0"
           style="fill-rule:evenodd" />
        <path
           id="path3099-5-5"
           d="m 579.16,260.201 c -1.377,-0.79 -4.408,-2.017 -4.799,-3.36 -0.559,-1.913 0.758,-6.961 0.959,-9.36 0.822,-9.767 0.945,-20.564 0,-29.76 -3.818,-37.135 -19.225,-64.793 -38.16,-86.88 -25.336,-29.555 -62.002,-50.16 -114.24,-52.56 h -3.599 c -7.358,0.18 -14.648,0.923 -21.36,1.92 -45.286,6.728 -76.74,29.54 -99.84,58.8 -12.801,16.215 -23.656,37.635 -28.8,61.92 -5.195,24.524 -4.134,56.744 4.08,79.92 -3.636,6.124 -8.064,11.456 -14.64,14.64 7.025,0.146 13.7,-0.06 19.68,-0.96 14.515,32.847 37.705,58.296 67.92,74.641 -6.092,-7.829 -10.976,-16.864 -15.6,-26.16 l -10.32,-22.08 c -5.173,-11.835 -10.08,-24.649 -14.64,-36.48 13.097,-8.982 23.425,-20.735 30.48,-35.76 25.012,17.689 54.415,32.548 87.36,43.2 16.324,5.277 35.254,9.725 56.4,8.88 20.443,-0.817 38.105,-5.605 54.24,-11.04 -5.447,13.924 -11.688,30.482 -18.48,43.439 -3.619,6.904 -13.99,28.011 -19.92,36.001 36.775,-20.744 63.008,-52.032 75.359,-97.201 4.592,-2.928 9.539,-5.5 13.441,-9.12 -1.997,-0.638 -3.435,-1.445 -5.521,-2.64 z"
           clip-rule="evenodd"
           inkscape:connector-curvature="0"
           style="fill:#0188aa;fill-rule:evenodd" />
        <path
           id="path3101-4-9"
           d="m 383.32,319.48 c 1.752,10.379 -6.477,19.08 -16.08,18.48 -7.697,-0.48 -15.006,-6.84 -14.16,-17.52 -3.971,2.188 -6.857,5.462 -9.84,8.639 -0.216,0.759 -0.724,1.055 -0.24,1.921 -3.741,-1.813 -7.326,-4.215 -10.8,-6.48 -3.332,-2.173 -7.424,-4.058 -9.12,-7.92 7.333,-0.448 12.877,2.96 18.72,4.8 -2.537,-3.063 -8.736,-5.822 -9.6,-10.56 4.738,-1.413 10.511,2.616 14.64,4.08 -0.392,-1.729 -3.818,-3.646 -3.36,-6.24 4.104,0.376 6.365,2.595 9.36,4.08 -0.536,-1.624 -1.958,-2.362 -1.92,-4.56 2.486,-0.305 5.252,1.13 7.44,1.92 -0.192,-1.328 -1.26,-1.78 -1.2,-3.36 3.817,-0.101 5.954,1.757 9.84,1.681 11.913,-0.237 20.05,10.618 24.72,18.239 0.024,0.039 0.785,0.505 0.24,0.72 -2.353,-3.166 -5.389,-5.65 -8.64,-7.92 z m -27.6,1.92 c -2.555,8.063 11.661,5.761 7.2,-0.959 -0.35,-0.527 -1.546,-1.898 -4.08,-1.44 -1.881,0.34 -2.866,1.599 -3.12,2.399 z"
           clip-rule="evenodd"
           inkscape:connector-curvature="0"
           style="fill-rule:evenodd" />
        <path
           id="path3103-1-0"
           d="m 489.16,312.761 c 3.119,-1.441 5.316,-3.804 9.6,-4.08 -0.305,3.056 -2.486,4.233 -3.84,6.24 4.781,-1.475 9.58,-5.169 15.121,-4.32 -1.459,5.421 -6.539,7.222 -9.84,10.8 5.883,-1.799 11.379,-5.256 18.719,-4.8 -1.574,3.994 -5.785,5.728 -9.119,7.92 -3.379,2.222 -6.879,4.472 -10.32,6.48 -2.1,-4.86 -6.248,-7.672 -10.32,-10.56 0.824,10.136 -6.967,18.104 -16.32,17.52 -7.943,-0.496 -15.607,-7.465 -13.92,-18.24 -3.348,1.453 -6.66,5.019 -9.119,8.16 5.301,-7.449 11.451,-19.583 24.959,-19.439 0.674,0.006 1.461,0.318 2.16,0.239 2.551,-0.29 4.771,-2.315 7.92,-2.16 0.236,1.835 -0.855,2.344 -1.199,3.601 2.268,-0.709 4.932,-2.244 7.439,-1.92 0.011,2.169 -1.224,3.096 -1.921,4.559 z m -22.56,13.92 c 1.025,-0.261 2.977,-1.937 2.641,-4.56 -0.305,-2.387 -2.229,-3.471 -4.561,-3.12 -5.84,0.876 -3.344,9.02 1.92,7.68 z"
           clip-rule="evenodd"
           inkscape:connector-curvature="0"
           style="fill-rule:evenodd" />
      </g>
    </g>
  </g>
</svg>
