<?xml version="1.0" encoding="UTF-8" standalone="no"?>
<!-- Created with Inkscape (http://www.inkscape.org/) -->

<svg
   xmlns:dc="http://purl.org/dc/elements/1.1/"
   xmlns:cc="http://creativecommons.org/ns#"
   xmlns:rdf="http://www.w3.org/1999/02/22-rdf-syntax-ns#"
   xmlns:svg="http://www.w3.org/2000/svg"
   xmlns="http://www.w3.org/2000/svg"
   xmlns:xlink="http://www.w3.org/1999/xlink"
   xmlns:sodipodi="http://sodipodi.sourceforge.net/DTD/sodipodi-0.dtd"
   xmlns:inkscape="http://www.inkscape.org/namespaces/inkscape"
   width="210mm"
   height="297mm"
   id="svg5735"
   version="1.1"
   inkscape:version="0.48.3.1 r9886"
   sodipodi:docname="v1.svg">
  <defs
     id="defs3">
    <clipPath
       id="SVGID_2_">
      <rect
         height="1190.549"
         width="841.89001"
         y="0.001"
         id="use11"
         x="0" />
    </clipPath>
    <clipPath
       id="SVGID_2_-1">
      <rect
         height="1190.549"
         width="841.89001"
         y="0.001"
         id="use11-9"
         x="0" />
    </clipPath>
    <clipPath
       id="clipPath6664">
      <rect
         height="1190.549"
         width="841.89001"
         y="0.001"
         id="use6666"
         x="0" />
    </clipPath>
    <clipPath
       id="clipPath6668">
      <rect
         height="1190.549"
         width="841.89001"
         y="0.001"
         id="use6670"
         x="0" />
    </clipPath>
    <clipPath
       id="clipPath6672">
      <rect
         height="1190.549"
         width="841.89001"
         y="0.001"
         id="use6674"
         x="0" />
    </clipPath>
    <clipPath
       id="clipPath6676">
      <rect
         height="1190.549"
         width="841.89001"
         y="0.001"
         id="use6678"
         x="0" />
    </clipPath>
    <clipPath
       id="clipPath6680">
      <rect
         height="1190.549"
         width="841.89001"
         y="0.001"
         id="use6682"
         x="0" />
    </clipPath>
    <clipPath
       id="clipPath6684">
      <rect
         height="1190.549"
         width="841.89001"
         y="0.001"
         id="use6686"
         x="0" />
    </clipPath>
    <clipPath
       id="clipPath6688">
      <rect
         height="1190.549"
         width="841.89001"
         y="0.001"
         id="use6690"
         x="0" />
    </clipPath>
    <clipPath
       id="clipPath6692">
      <rect
         height="1190.549"
         width="841.89001"
         y="0.001"
         id="use6694"
         x="0" />
    </clipPath>
    <clipPath
       id="clipPath6696">
      <rect
         height="1190.549"
         width="841.89001"
         y="0.001"
         id="use6698"
         x="0" />
    </clipPath>
    <clipPath
       id="clipPath6700">
      <rect
         height="1190.549"
         width="841.89001"
         y="0.001"
         id="use6702"
         x="0" />
    </clipPath>
    <clipPath
       id="clipPath6704">
      <rect
         height="1190.549"
         width="841.89001"
         y="0.001"
         id="use6706"
         x="0" />
    </clipPath>
    <clipPath
       id="clipPath6708">
      <rect
         height="1190.549"
         width="841.89001"
         y="0.001"
         id="use6710"
         x="0" />
    </clipPath>
    <clipPath
       id="SVGID_4_-3">
      <rect
         height="1190.549"
         width="841.89001"
         y="0.001"
         id="use97-7"
         x="0" />
    </clipPath>
    <clipPath
       id="clipPath6714">
      <rect
         height="1190.549"
         width="841.89001"
         y="0.001"
         id="use6716"
         x="0" />
    </clipPath>
    <clipPath
       id="clipPath6718">
      <rect
         height="1190.549"
         width="841.89001"
         y="0.001"
         id="use6720"
         x="0" />
    </clipPath>
    <clipPath
       id="clipPath6722">
      <rect
         height="1190.549"
         width="841.89001"
         y="0.001"
         id="use6724"
         x="0" />
    </clipPath>
    <clipPath
       id="SVGID_2_-1-9">
      <rect
         height="1190.549"
         width="841.89001"
         y="0.001"
         id="use11-9-1"
         x="0" />
    </clipPath>
    <clipPath
       id="clipPath8522">
      <rect
         height="1190.549"
         width="841.89001"
         y="0.001"
         id="use8524"
         x="0" />
    </clipPath>
    <clipPath
       id="clipPath8526">
      <rect
         height="1190.549"
         width="841.89001"
         y="0.001"
         id="use8528"
         x="0" />
    </clipPath>
    <clipPath
       id="clipPath8530">
      <rect
         height="1190.549"
         width="841.89001"
         y="0.001"
         id="use8532"
         x="0" />
    </clipPath>
    <clipPath
       id="clipPath8534">
      <rect
         height="1190.549"
         width="841.89001"
         y="0.001"
         id="use8536"
         x="0" />
    </clipPath>
    <clipPath
       id="clipPath8538">
      <rect
         height="1190.549"
         width="841.89001"
         y="0.001"
         id="use8540"
         x="0" />
    </clipPath>
    <clipPath
       id="clipPath8542">
      <rect
         height="1190.549"
         width="841.89001"
         y="0.001"
         id="use8544"
         x="0" />
    </clipPath>
    <clipPath
       id="SVGID_2_-1-96">
      <rect
         height="1190.549"
         width="841.89001"
         y="0.001"
         id="use11-9-2"
         x="0" />
    </clipPath>
    <clipPath
       id="SVGID_4_-3-3">
      <rect
         height="1190.549"
         width="841.89001"
         y="0.001"
         id="use97-7-1"
         x="0" />
    </clipPath>
    <clipPath
       id="clipPath8615">
      <rect
         height="1190.549"
         width="841.89001"
         y="0.001"
         id="use8617"
         x="0" />
    </clipPath>
    <clipPath
       id="SVGID_2_-1-3">
      <rect
         height="1190.549"
         width="841.89001"
         y="0.001"
         id="use11-9-6"
         x="0" />
    </clipPath>
    <clipPath
       id="SVGID_4_-0">
      <use
         xlink:href="#SVGID_3_"
         overflow="visible"
         id="use97-77"
         style="overflow:visible"
         x="0"
         y="0"
         width="841.89001"
         height="1190.55" />
    </clipPath>
    <clipPath
       id="clipPath6914">
      <use
         xlink:href="#SVGID_3_"
         overflow="visible"
         id="use6916"
         style="overflow:visible"
         x="0"
         y="0"
         width="841.89001"
         height="1190.55" />
    </clipPath>
  </defs>
  <sodipodi:namedview
     inkscape:document-units="mm"
     id="base"
     pagecolor="#ffffff"
     bordercolor="#666666"
     borderopacity="1.0"
     inkscape:pageopacity="0.0"
     inkscape:pageshadow="2"
     inkscape:zoom="0.35"
     inkscape:cx="161.1827"
     inkscape:cy="498.0634"
     inkscape:current-layer="svg5735"
     showgrid="false"
     inkscape:window-width="1280"
     inkscape:window-height="937"
     inkscape:window-x="0"
     inkscape:window-y="27"
     inkscape:window-maximized="1" />
  <metadata
     id="metadata4">
    <rdf:RDF>
      <cc:Work
         rdf:about="">
        <dc:format>image/svg+xml</dc:format>
        <dc:type
           rdf:resource="http://purl.org/dc/dcmitype/StillImage" />
      </cc:Work>
    </rdf:RDF>
  </metadata>
  <g
     inkscape:label="Layer 1"
     inkscape:groupmode="layer"
     id="layer1"
     style="display:inline">
    <g
       inkscape:groupmode="layer"
       id="layer10"
       inkscape:label="pylady"
       style="display:inline">
      <path
         inkscape:connector-curvature="0"
         clip-path="url(#SVGID_2_-1-9)"
         d="m 833.848,50.65 c 0,229.018 -185.662,414.68 -414.672,414.68 C 190.151,465.33 4.49,279.668 4.49,50.65 c 0,-229.023 185.661,-414.684 414.686,-414.684 229.01,0 414.672,185.661 414.672,414.684"
         id="path13-6"
         style="fill:#0088aa;fill-opacity:1"
         transform="matrix(0.89479454,0,0,0.89479454,-10.41003,-4.9929122)" />
      <path
         style="fill:#ffffff"
         inkscape:connector-curvature="0"
         clip-path="url(#SVGID_2_-1-9)"
         d="m 434.547,-39.083 c -5.263,-0.209 -10.291,-0.182 -15.379,-0.215 -5.086,0.033 -10.113,0.006 -15.369,0.215 -262.004,10.328 -300.701,202.033 -300.701,202.033 0,0 75.978,224.149 139.371,275.565 36.48,29.601 129.258,78.049 176.699,81.762 47.447,-3.713 140.217,-52.161 176.703,-81.762 63.392,-51.416 139.367,-275.565 139.367,-275.565 0,0 -38.697,-191.705 -300.691,-202.033"
         id="path15-7"
         transform="matrix(0.89479454,0,0,0.89479454,-10.41003,-4.9929122)" />
      <path
         inkscape:connector-curvature="0"
         clip-path="url(#SVGID_2_-1-9)"
         d="m -15.516,216.47 c 157.057,9.043 207.701,-125.367 207.701,-125.367 0,0 104.948,80.444 265.576,125.805 209.182,59.071 399.644,-87.259 399.644,-87.259 0,0 -157.556,-61.672 -204.101,-310.407 -153.992,-46.14 -371.927,34.355 -498.056,94.805 C 29.122,-25.502 76.125,174.461 -15.516,216.47"
         id="path19-3"
         style="fill:#0088aa;fill-opacity:1"
         transform="matrix(0.89479454,0,0,0.89479454,-10.41003,-4.9929122)" />
      <path
         inkscape:connector-curvature="0"
         clip-path="url(#SVGID_2_-1-9)"
         d="m 519.536,289.163 c 0,-3.153 0.397,-6.222 1.075,-9.176 9.535,-10.717 23.492,-17.512 39.106,-17.512 16.502,0 31.173,7.59 40.695,19.382 0.432,2.374 0.69,4.811 0.69,7.306 0,22.529 -18.263,40.786 -40.787,40.786 -22.516,0 -40.779,-18.257 -40.779,-40.786"
         id="path23-5"
         transform="matrix(0.89479454,0,0,0.89479454,-10.41003,-4.9929122)" />
      <path
         inkscape:connector-curvature="0"
         clip-path="url(#SVGID_2_-1-9)"
         d="m 628.306,308.462 c 0,0 -20.219,-31.433 -61.569,-39.315 -41.356,-7.874 -72.957,36.154 -72.957,36.154 0,0 25.756,-44.986 55.006,-52.558 9.375,-2.43 21.007,-1.277 21.007,-1.277 0,0 17.041,-7.017 19.625,-5.432 2.6,1.577 -3.24,9.459 -3.24,9.459 0,0 19.24,-7.75 20.478,-5.041 1.235,2.708 -5.551,12.181 -5.551,12.181 0,0 23.937,-14.564 25.762,-10.724 1.812,3.848 -10.584,16.779 -10.584,16.779 0,0 39.14,-18.459 40.903,-11.311 1.775,7.144 -27.241,28.456 -27.241,28.456 0,0 49.967,-19.716 51.203,-12.282 1.229,7.437 -53.371,38.236 -53.371,38.236 l 0.529,-3.325 z"
         id="path25-6"
         transform="matrix(0.89479454,0,0,0.89479454,-10.41003,-4.9929122)" />
      <path
         inkscape:connector-curvature="0"
         clip-path="url(#SVGID_2_-1-9)"
         d="m 210.029,308.462 c 0,0 20.215,-31.433 61.573,-39.315 41.356,-7.874 72.948,36.154 72.948,36.154 0,0 -25.757,-44.986 -55.003,-52.558 -9.375,-2.43 -21.01,-1.277 -21.01,-1.277 0,0 -17.033,-7.017 -19.623,-5.432 -2.59,1.577 3.242,9.459 3.242,9.459 0,0 -19.244,-7.75 -20.48,-5.041 -1.237,2.708 5.548,12.181 5.548,12.181 0,0 -23.939,-14.564 -25.75,-10.724 -1.82,3.848 10.576,16.779 10.576,16.779 0,0 -39.134,-18.459 -40.904,-11.311 -1.77,7.144 27.242,28.456 27.242,28.456 0,0 -49.965,-19.716 -51.195,-12.282 -1.236,7.437 53.363,38.236 53.363,38.236 l -0.527,-3.325 z"
         id="path29-1"
         transform="matrix(0.89479454,0,0,0.89479454,-10.41003,-4.9929122)" />
      <path
         inkscape:connector-curvature="0"
         clip-path="url(#SVGID_2_-1-9)"
         d="m 318.793,289.163 c 0,-3.153 -0.396,-6.222 -1.074,-9.176 -9.532,-10.717 -23.494,-17.512 -39.104,-17.512 -16.501,0 -31.177,7.59 -40.703,19.382 -0.427,2.374 -0.687,4.811 -0.687,7.306 0,22.529 18.258,40.786 40.787,40.786 22.522,0 40.781,-18.257 40.781,-40.786"
         id="path31-0"
         transform="matrix(0.89479454,0,0,0.89479454,-10.41003,-4.9929122)" />
      <path
         inkscape:connector-curvature="0"
         clip-path="url(#SVGID_2_-1-96)"
         d="m 403.047,363.456 c 4.502,-2.693 9.822,-4.254 15.545,-4.254 5.719,0 11.037,1.561 15.551,4.254 3.369,0.515 6.567,1.161 9.508,1.958 -5.249,-7.977 -14.481,-13.325 -25.059,-13.325 -10.588,0 -19.811,5.348 -25.059,13.325 2.938,-0.797 6.139,-1.443 9.514,-1.958"
         id="path35-4"
         transform="matrix(0.89479454,0,0,0.89479454,-10.410033,-4.9929026)" />
      <path
         transform="matrix(0.89479454,0,0,0.89479454,-10.410033,-4.9929026)"
         inkscape:connector-curvature="0"
         clip-path="url(#SVGID_4_-3-3)"
         d="m 399.838,359.575 c -4.039,-11.625 -85.096,-11.966 -94.324,-11.966 -61.071,0 -92.872,4.863 -94.563,14.944 0,31.836 43.406,70.733 94.064,70.733 49.989,0 92.916,-37.871 94.045,-69.46 1.393,-1.772 1.041,-3.5 0.778,-4.251 m -6.852,5.327 c 0,23.278 -34.599,59.197 -80.567,59.197 -45.969,0 -80.564,-35.919 -80.624,-58.656 1.58,-3.473 24.47,-8.637 81.079,-8.637 43.936,0 73.438,3.795 80.112,6.809 v 1.287 z"
         id="path103-7" />
      <path
         transform="matrix(0.89479454,0,0,0.89479454,-10.410033,-4.9929026)"
         inkscape:connector-curvature="0"
         clip-path="url(#SVGID_4_-3-3)"
         d="m 439.1,363.826 c 1.127,31.589 44.056,69.46 94.041,69.46 50.662,0 94.071,-38.897 94.071,-70.733 -1.692,-10.081 -33.5,-14.944 -94.565,-14.944 -9.233,0 -90.291,0.341 -94.327,11.966 -0.263,0.751 -0.605,2.479 0.78,4.251 m 6.069,-0.211 c 6.683,-3.014 36.181,-6.809 80.111,-6.809 56.61,0 79.498,5.164 81.082,8.637 -0.062,22.737 -34.654,58.656 -80.623,58.656 -45.97,0 -80.57,-35.919 -80.57,-59.197 v -1.287 z"
         id="path105-9" />
    </g>
    <g
       inkscape:groupmode="layer"
       id="layer12"
       inkscape:label="fondo azul"
       style="display:inline">
      <rect
         x="-1.1160001"
         y="461.543"
         clip-path="url(#SVGID_2_-1-3)"
         width="841.89099"
         height="737.008"
         id="rect37-4"
         style="fill:#0088aa;fill-opacity:1"
         transform="matrix(0.89479454,0,0,0.89479454,-10.41003,-4.9928931)" />
    </g>
    <g
       inkscape:groupmode="layer"
       id="layer13"
       inkscape:label="texto"
       style="display:inline">
      <flowRoot
         xml:space="preserve"
         id="flowRoot5617"
         style="font-size:44.70299911px;font-style:oblique;font-variant:normal;font-stretch:normal;text-align:center;line-height:125%;letter-spacing:0px;word-spacing:0px;writing-mode:lr-tb;text-anchor:middle;fill:#000000;fill-opacity:1;stroke:none;font-family:URW Gothic L;-inkscape-font-specification:URW Gothic L Book Oblique"
         transform="matrix(0.89479454,0,0,0.89479454,-1184.9952,-4.6009135)"><flowRegion
           id="flowRegion5619"><rect
             id="rect5621"
             width="713.82556"
             height="131.16229"
             x="1399.9053"
             y="832.3761"
             style="font-size:44.70299911px;font-style:oblique;font-variant:normal;font-stretch:normal;text-align:center;line-height:125%;writing-mode:lr-tb;text-anchor:middle;font-family:URW Gothic L;-inkscape-font-specification:URW Gothic L Book Oblique" /></flowRegion><flowPara
           id="flowPara5623"
           style="font-size:44.70299911px;font-style:italic;font-variant:normal;font-weight:normal;font-stretch:normal;text-align:center;line-height:125%;writing-mode:lr-tb;text-anchor:middle;font-family:Liberation Sans;-inkscape-font-specification:Liberation Sans Italic">Incentivando la integración </flowPara><flowPara
           id="flowPara5625"
           style="font-size:44.70299911px;font-style:italic;font-variant:normal;font-weight:normal;font-stretch:normal;text-align:center;line-height:125%;writing-mode:lr-tb;text-anchor:middle;font-family:Liberation Sans;-inkscape-font-specification:Liberation Sans Italic">de mujeres en el mundo Python</flowPara></flowRoot>    </g>
    <g
       inkscape:groupmode="layer"
       id="layer14"
       inkscape:label="info"
       style="display:inline">
      <flowRoot
         xml:space="preserve"
         id="flowRoot5496-8"
         style="font-size:40px;font-style:normal;font-weight:normal;text-align:end;line-height:125%;letter-spacing:0px;word-spacing:0px;text-anchor:end;fill:#000000;fill-opacity:1;stroke:none;font-family:Sans"
         transform="translate(-483.37485,-330.13049)"><flowRegion
           id="flowRegion5498-0"><rect
             id="rect5500-8"
             width="588.5788"
             height="149.82007"
             x="618.89948"
             y="1235.1394"
             style="text-align:end;text-anchor:end" /></flowRegion><flowPara
           id="flowPara5502-3"
           style="font-size:34px;font-style:normal;font-variant:normal;font-weight:normal;font-stretch:normal;text-align:end;line-height:125%;writing-mode:lr-tb;text-anchor:end;fill:#ffffff;font-family:Liberation Sans;-inkscape-font-specification:Liberation Sans">www.pyladies.com/argentina</flowPara><flowPara
           id="flowPara5508-1"
           style="font-size:34px;font-style:normal;font-variant:normal;font-weight:normal;font-stretch:normal;text-align:end;line-height:125%;writing-mode:lr-tb;text-anchor:end;fill:#ffffff;font-family:Liberation Sans;-inkscape-font-specification:Liberation Sans">#pyladiesARG @ freenode</flowPara><flowPara
           id="flowPara5510-9"
           style="font-size:34px;font-style:normal;font-variant:normal;font-weight:normal;font-stretch:normal;text-align:end;line-height:125%;writing-mode:lr-tb;text-anchor:end;fill:#ffffff;font-family:Liberation Sans;-inkscape-font-specification:Liberation Sans">@pyladiesARG</flowPara></flowRoot>      <g
         style="fill:#ffff00;display:inline"
         transform="matrix(0.89116367,0,0,0.87470253,117.85338,-247.41297)"
         id="g5477">
        <g
           transform="translate(-140,0)"
           id="g5465"
           style="fill:#ffffff">
          <g
             id="g91"
             transform="translate(0,294)"
             style="fill:#ffffff">
            <defs
               id="defs93">
              <rect
                 id="SVGID_3_"
                 y="0.001"
                 width="841.89001"
                 height="1190.549"
                 x="0" />
            </defs>
            <clipPath
               id="clipPath7345">
              <use
                 xlink:href="#SVGID_3_"
                 overflow="visible"
                 id="use7347"
                 style="overflow:visible"
                 x="0"
                 y="0"
                 width="841.89001"
                 height="1190.55" />
            </clipPath>
            <g
               id="g5456"
               style="fill:#ffffff">
              <path
                 style="fill:#ffffff"
                 inkscape:connector-curvature="0"
                 id="path99"
                 d="m 370.711,560.296 c -32.647,1.703 -28.157,101.9 -28.157,101.9 0,0 -1.388,11.062 -6.058,17.428 -4.67,6.369 -12.492,10.924 -14.471,8.925 l 12.16,-53.539 h -17.939 c 0,0 -9.559,53.596 -20.02,55.574 -10.461,1.98 -7.492,-8.956 -7.492,-20.166 0,-16.508 2.248,-34.606 -9.707,-36.101 -11.957,-1.495 -24.691,18.91 -24.691,18.91 0,0 1.507,-11.962 -10.45,-17.941 -11.953,-5.977 -41.84,8.971 -41.84,8.971 2.784,-12.62 -2.271,-28.542 -16.46,-28.388 -12.53,0.755 -21.36,9.479 -29.868,16.412 l 11.975,11.976 c 0,0 11.916,-13.438 17.893,-5.965 5.976,7.472 -23.012,146.214 -23.012,146.214 h 17.939 l 17.047,-71.498 c 0,0 38.856,3.004 46.326,-5.965 7.475,-8.967 13.455,-32.873 13.455,-32.873 0,0 16.452,-17.965 14.957,-11.988 -1.496,5.978 -3.009,46.328 4.461,47.82 7.475,1.497 22.426,0 22.426,0 l -18.125,58.116 -20.713,1.667 -3.006,14.979 h 34.401 l 24.135,-75.132 c 0,0 10.832,-1.552 16.966,-4.902 6.135,-3.348 10.928,-9.273 15.35,-13.686 0.977,7.49 1.283,13.376 10.449,18.125 11.881,6.154 28.377,1.719 35.463,-3.698 17.188,11.208 31.393,-2.218 31.393,-2.218 0,0 16.418,14.943 25.384,0 24.659,16.438 38.098,-0.695 38.098,-0.695 0,0 1.156,8.076 21.914,9.478 20.763,1.406 30.654,-18.725 30.654,-18.725 4.061,5.155 6.125,16.125 16.135,17.198 10.01,1.078 20.015,-5.333 27.604,-13.27 5.653,10.651 11.41,11.481 18.634,14.057 7.219,2.578 21.157,-5.103 27.047,-9.154 7.51,13.52 29.618,12.518 36.108,2.452 0.092,0.705 1.754,2.216 10.496,5.131 3.465,-2.529 4.452,-6.702 8.599,-12.346 -3.736,-1.493 -11.281,-5.224 -11.281,-5.224 -2.222,-12.449 -8.916,-23.995 -16.043,-35.463 l 7.491,-16.414 -14.934,-4.484 c -9.214,19.982 -16.97,37.697 -23.168,49.471 -6.195,11.776 -29.125,12.237 -33.611,2.036 30.029,-22.476 33.353,-57.067 7.445,-53.763 -23.978,3.059 -21.812,45.183 -21.812,45.183 0,0 -8.813,8.566 -20.771,10.06 -11.955,1.496 3.791,-53.263 3.791,-53.263 h -16.414 c 0,0 -9.879,39.001 -21.731,51.783 -10.681,11.521 -15.291,4.648 -18.214,3.282 -3.032,-1.413 33.664,-130.213 33.664,-130.213 l -20.959,0.188 -21.909,76.022 c -11.955,-0.242 -25.397,-1.961 -37.357,8.695 -16.065,15.09 -9.856,48.911 -28.436,42.827 -5.978,1.495 10.127,-45.511 10.127,-45.511 -1.091,-7.65 -24.752,-11.138 -36.525,-3.885 -23.355,14.389 -21.223,42.94 -25.615,53.355 -10.35,4.787 -13.217,1.622 -17.307,-8.876 17.201,-20.12 44.053,-121.396 9.68,-122.892 -0.535,-0.021 -1.053,-0.024 -1.571,0.003 m 1.271,24.163 c 0.16,-0.02 0.303,-0.013 0.463,0 7.143,0.581 -14.219,69.508 -14.219,69.508 -2.215,-0.735 3.754,-68.103 13.756,-69.508 m 226.148,66.482 c 3.409,-2.87 5.889,-2.268 6.424,-0.296 0.532,1.969 -12.873,19.611 -12.873,19.611 0.073,-6.635 3.033,-16.446 6.449,-19.315 m -111.344,3.966 c 4.276,-0.121 5.97,-0.735 8.065,0.862 l -6.799,30.098 c -1.49,4.547 -21.752,8.221 -23.994,-2.17 -2.103,-9.746 3.625,-17.365 7.791,-22.595 3.364,-4.222 9.433,-6.04 14.937,-6.195 m -66.628,0.84 c 1.164,-0.023 2.379,0.168 3.607,0.601 l -7.629,27.402 c -3.736,5.231 -13.726,7.481 -14.681,-0.146 -1.241,-9.932 7.455,-27.635 18.703,-27.857 m -186.949,0.022 c 1.976,0.042 3.744,0.521 5.132,1.711 7.397,6.341 0.866,28.354 -6.66,33.384 -9.045,6.044 -27.648,1.802 -27.648,1.802 l 7.398,-28.527 c 0.861,-10e-4 13.212,-8.556 21.778,-8.37 m 419.441,14.194 c 0,0 9.013,19.22 7.396,22.193 -4.027,7.439 -18.222,-0.117 -17.427,-2.637 l 10.031,-19.556 z"
                 clip-path="url(#SVGID_4_-0)" />
            </g>
            <path
               clip-path="url(#SVGID_4_-0)"
               d="m 561.823,599.782 c 16.143,-0.549 15.192,24.647 -1.062,22.947 -11.641,-1.221 -15.08,-22.397 1.062,-22.947"
               id="path101"
               inkscape:connector-curvature="0"
               style="fill:#ffffff" />
          </g>
          <text
             xml:space="preserve"
             style="font-size:65.90190125px;font-style:normal;font-weight:normal;line-height:125%;letter-spacing:0px;word-spacing:0px;fill:#ffffff;fill-opacity:1;stroke:none;font-family:Sans"
             x="403.50702"
             y="1065.76"
             id="text5287"
             sodipodi:linespacing="125%"><tspan
               sodipodi:role="line"
               id="tspan5289"
               x="403.50702"
               y="1065.76"
               style="font-size:65.90190125px;font-style:normal;font-variant:normal;font-stretch:normal;text-align:start;line-height:125%;writing-mode:lr-tb;text-anchor:start;fill:#ffffff;font-family:liberation sans;-inkscape-font-specification:liberation sans">Argentina</tspan></text>
        </g>
      </g>
    </g>
  </g>
</svg>
