<?xml version="1.0" encoding="UTF-8" standalone="no"?>
<!-- Generator: Adobe Illustrator 14.0.0, SVG Export Plug-In . SVG Version: 6.00 Build 43363)  -->

<svg
   xmlns:dc="http://purl.org/dc/elements/1.1/"
   xmlns:cc="http://creativecommons.org/ns#"
   xmlns:rdf="http://www.w3.org/1999/02/22-rdf-syntax-ns#"
   xmlns:svg="http://www.w3.org/2000/svg"
   xmlns="http://www.w3.org/2000/svg"
   xmlns:sodipodi="http://sodipodi.sourceforge.net/DTD/sodipodi-0.dtd"
   xmlns:inkscape="http://www.inkscape.org/namespaces/inkscape"
   version="1.1"
   id="Layer_1"
   x="0px"
   y="0px"
   width="841.89px"
   height="595.28px"
   viewBox="0 0 841.89 595.28"
   enable-background="new 0 0 841.89 595.28"
   xml:space="preserve"
   inkscape:version="0.48.3.1 r9886"
   sodipodi:docname="logo.svg"><metadata
   id="metadata3115"><rdf:RDF><cc:Work
       rdf:about=""><dc:format>image/svg+xml</dc:format><dc:type
         rdf:resource="http://purl.org/dc/dcmitype/StillImage" /><dc:title></dc:title></cc:Work></rdf:RDF></metadata><defs
   id="defs3113" /><sodipodi:namedview
   pagecolor="#ffffff"
   bordercolor="#666666"
   borderopacity="1"
   objecttolerance="10"
   gridtolerance="10"
   guidetolerance="10"
   inkscape:pageopacity="0"
   inkscape:pageshadow="2"
   inkscape:window-width="1366"
   inkscape:window-height="681"
   id="namedview3111"
   showgrid="false"
   inkscape:zoom="0.77998197"
   inkscape:cx="420.94501"
   inkscape:cy="297.64001"
   inkscape:window-x="0"
   inkscape:window-y="27"
   inkscape:window-maximized="1"
   inkscape:current-layer="Layer_1" />
<g
   id="g3071">
	<path
   fill-rule="evenodd"
   clip-rule="evenodd"
   fill="#FFFFFF"
   d="M358.84,319.001c2.534-0.458,3.73,0.913,4.08,1.44   c4.461,6.72-9.755,9.021-7.2,0.959C355.974,320.6,356.959,319.341,358.84,319.001z"
   id="path3073" />
	<path
   fill-rule="evenodd"
   clip-rule="evenodd"
   fill="#FFFFFF"
   d="M464.68,319.001c2.332-0.351,4.256,0.733,4.561,3.12   c0.336,2.623-1.615,4.299-2.641,4.56C461.336,328.021,458.84,319.877,464.68,319.001z"
   id="path3075" />
	<path
   fill-rule="evenodd"
   clip-rule="evenodd"
   fill="#FFFFFF"
   d="M411.161,350.441c-0.122,7.573-5.28,12.51-10.561,16.319   c-5.424,3.914-12.251,6.682-20.4,6.48c-14.252-0.353-26.721-9.202-29.28-22.081c5.657-2.718,13.179-2.521,20.88-2.879   C385.209,347.657,400.265,347.996,411.161,350.441z"
   id="path3077" />
	<path
   fill-rule="evenodd"
   clip-rule="evenodd"
   fill="#FFFFFF"
   d="M491.08,351.16c-2.389,12.662-14.719,21.543-29.039,22.081   c-8.199,0.308-15.113-2.521-20.641-6.48c-5.297-3.796-10.422-8.745-10.561-16.319c5.99-1.678,13.293-1.808,20.881-2.16   C465.498,347.641,480.783,347.565,491.08,351.16z"
   id="path3079" />
	<g
   id="g3081">
		<path
   fill-rule="evenodd"
   clip-rule="evenodd"
   fill="#333333"
   d="M382.413,508.686c-3.969,0-8.016-0.393-12.029-1.168    c-9.315-1.797-30.993-8.096-31.099-27.718c-0.068-12.612,8.752-22.283,15.84-30.054c1.161-1.272,2.284-2.505,3.33-3.703    c0.327-0.375,0.658-0.78,0.988-1.186c0.883-1.082,1.796-2.201,2.577-2.627c2.173-1.184,5.28-1.715,8.285-2.229    c0.768-0.132,1.521-0.261,2.238-0.397c2.472-0.473,4.993-0.735,7.663-1.014c1.273-0.133,2.558-0.267,3.85-0.426l0.063-0.008    l0.031-0.055c3.729-6.59,7.239-13.572,10.632-20.324c2.685-5.341,5.461-10.864,8.329-16.158c-0.345-2.296,0.011-4.202,1.017-5.447    c0.839-1.037,2.077-1.605,3.68-1.687c2.022-1.851,4.047-3.817,6.005-5.72c3.536-3.436,7.191-6.986,10.573-9.861l0.457,0.187    c1.271,0.516,2.585,1.049,3.512,1.92c0.198,0.467-0.207,0.805-0.85,1.263c-0.228,0.162-0.442,0.315-0.596,0.481    c-0.83,0.899-1.686,1.835-2.56,2.791c-3.558,3.889-7.59,8.297-11.354,11.843l-0.054,0.051l0.02,0.072    c0.481,1.8,0.293,3.412-0.542,4.663c-0.783,1.171-2.087,1.932-3.674,2.142l-0.073,0.01l-0.027,0.068    c-2.597,6.563-5.376,13.098-8.063,19.417c-1.936,4.553-3.938,9.26-5.856,13.94l-0.069,0.169l0.182,0.004    c5.394,0.113,9.619,0.816,12.916,2.151c1.104,2.615,2.451,5.341,3.753,7.978c4.783,9.682,9.729,19.694,8.889,32.218    C419.239,497.533,404.33,508.686,382.413,508.686L382.413,508.686z M341.2,485.594c4.046,15.232,23.888,22.17,40.611,22.17    c14.219,0,32.207-5.413,36.172-20.657c0.095-0.037,0.17-0.123,0.178-0.218c0.003-0.034,0.004-0.207-0.259-0.251    c-8.075,5.334-20.597,8.261-35.349,8.261c-16.142,0-31.916-3.618-41.166-9.442l-0.269-0.17L341.2,485.594z M355.864,452.361    c-0.884,1.068-1.834,2.152-2.808,3.264c-6.397,7.303-13.647,15.58-10.898,28.282c2.34,2.204,5.9,4.755,9.781,4.755h0    c0.811,0,1.61-0.114,2.376-0.341c5.851-1.731,9.296-12.425,9.132-21.339c-0.148-8.022-2.935-13.504-7.456-14.662l-0.077-0.02    L355.864,452.361z M391.437,438.617c-12.835,0-24.579,3.038-29.032,4.344c-0.716,0.648-1.383,1.465-2.089,2.329    c-0.356,0.437-0.719,0.881-1.09,1.309c-0.248,0.286-0.553,0.585-0.862,0.889c-0.905,0.888-1.841,1.805-1.561,2.596l0.022,0.064    l0.067,0.016c7.911,1.843,17.747,2.817,28.445,2.817c9.239,0,18.342-0.725,26.324-2.097l0.155-0.026l-0.061-0.146    c-1.351-3.209-2.9-6.296-4.398-9.28l-0.405-0.807C402.497,439.271,397.302,438.617,391.437,438.617L391.437,438.617z     M403.128,401.986c-2.657,5.458-5.463,10.902-8.178,16.168c-3.28,6.361-6.671,12.939-9.823,19.593l-0.079,0.167l0.184,0.012    c0.469,0.03,0.926,0.042,1.372,0.042h0c1.035,0,2.001-0.065,2.936-0.13c0.843-0.058,1.639-0.112,2.409-0.112    c0.828,0,1.509,0.063,2.146,0.197l0.101,0.021l1.29-3.017c4.209-9.842,8.562-20.018,12.671-30.2l0.063-0.154l-0.166-0.017    c-2.183-0.228-3.401-1.366-4.691-2.573l-0.124-0.115L403.128,401.986z M408.394,394.913c-2.442,0-5.039,1.573-5.039,4.488    c0,2.386,1.333,3.241,3.178,4.425c0.443,0.06,0.817,0.08,1.175,0.08c1.781,0,3.208-0.504,4.126-1.456    c0.79-0.819,1.181-1.958,1.132-3.294C412.857,396.226,410.591,394.913,408.394,394.913L408.394,394.913z M424.273,379.152    c-1.891,1.854-3.859,3.695-5.763,5.476c-3.3,3.087-6.712,6.279-9.842,9.648l-0.185,0.199l0.271,0.011    c2.093,0.084,3.074,1.237,4.113,2.458l0.21,0.247l0.095-0.107c2.762-3.104,5.682-6.15,8.505-9.097    c2.104-2.194,4.279-4.464,6.374-6.741l0.119-0.13l-0.161-0.069c-0.637-0.275-1.223-0.621-1.789-0.955    c-0.572-0.337-1.163-0.685-1.811-0.965l-0.077-0.034L424.273,379.152z"
   id="path3083" />
		<path
   fill="#010101"
   d="M425.237,379.388c1.036,0.427,2.068,0.889,2.854,1.558l-0.031-0.014c-0.63-0.272-1.212-0.615-1.775-0.947    C425.945,379.784,425.599,379.58,425.237,379.388 M422.122,381.056c-1.234,1.177-2.479,2.342-3.696,3.48    c-0.722,0.676-1.449,1.356-2.178,2.042C418.218,384.675,420.198,382.79,422.122,381.056 M428.26,381.205    c0.025,0.33-0.31,0.599-0.828,0.968c-0.067,0.048-0.133,0.095-0.197,0.142c0.306-0.328,0.608-0.656,0.91-0.984L428.26,381.205     M423.979,385.764c-2.902,3.173-6.104,6.663-9.207,9.733c2.304-2.525,4.683-5.008,6.997-7.423    C422.5,387.313,423.238,386.541,423.979,385.764 M411.075,391.592c-0.847,0.854-1.682,1.721-2.498,2.6l-0.37,0.397l0.542,0.022    c2.039,0.082,3.002,1.215,4.023,2.414l0.118,0.138l0.072,0.085c-0.018,0.017-0.036,0.033-0.054,0.051L412.8,397.4l0.039,0.145    c0.472,1.764,0.29,3.342-0.525,4.562c-0.762,1.141-2.036,1.882-3.586,2.087l-0.146,0.02l-0.054,0.137    c-2.596,6.562-5.375,13.095-8.062,19.414c-1.937,4.553-3.938,9.261-5.857,13.942l-0.138,0.337l0.364,0.008    c5.328,0.111,9.509,0.8,12.777,2.104c1.163,2.653,2.494,5.348,3.782,7.954c4.776,9.668,9.714,19.665,8.876,32.155    c-0.591,8.82-4.759,16.142-12.054,21.172c-6.662,4.594-15.826,7.124-25.803,7.124c-3.961,0-8-0.393-12.005-1.165    c-9.285-1.792-30.892-8.066-30.998-27.596c-0.068-12.564,8.734-22.215,15.807-29.97c1.175-1.288,2.285-2.505,3.332-3.705    c0.328-0.376,0.66-0.782,0.991-1.188c0.875-1.073,1.78-2.182,2.54-2.596c2.154-1.174,5.251-1.704,8.246-2.216    c0.769-0.132,1.522-0.261,2.241-0.398c2.467-0.471,4.986-0.733,7.652-1.012c1.258-0.131,2.558-0.267,3.852-0.426l0.125-0.016    l0.062-0.109c3.731-6.593,7.241-13.576,10.635-20.329c2.402-4.779,4.878-9.705,7.426-14.48c-2.447,4.979-5.002,9.936-7.48,14.743    c-3.28,6.362-6.671,12.941-9.825,19.596l-0.158,0.333l0.368,0.023c0.447,0.029,0.898,0.043,1.379,0.043    c1.04,0,2.008-0.066,2.944-0.13c0.841-0.058,1.635-0.112,2.401-0.112c0.818,0,1.492,0.062,2.12,0.194l0.201,0.043l0.081-0.188    l1.25-2.923c4.21-9.842,8.563-20.019,12.673-30.202l0.124-0.308l-0.33-0.035c-2.141-0.222-3.345-1.348-4.655-2.573l-0.191-0.179    l0.041-0.075l-0.014-0.084c-0.353-2.181-0.006-4.052,0.977-5.269c0.815-1.009,2.023-1.562,3.589-1.641l0.091-0.005l0.067-0.063    C408.99,393.591,410.032,392.596,411.075,391.592 M407.708,404.031c1.816,0,3.274-0.517,4.216-1.494    c0.813-0.845,1.217-2.016,1.167-3.385c-0.111-3.015-2.439-4.364-4.697-4.364c-2.503,0-5.164,1.617-5.164,4.613    c0,2.454,1.357,3.324,3.235,4.529l0.05,0.032l0.059,0.007C406.962,404.011,407.344,404.031,407.708,404.031 M385.337,453.105    c9.246,0,18.356-0.726,26.346-2.099l0.31-0.053l-0.122-0.29c-1.353-3.214-2.903-6.302-4.402-9.288l-0.405-0.808l-0.049-0.097    l-0.104-0.031c-4.391-1.293-9.597-1.948-15.474-1.948c-12.852,0-24.608,3.041-29.067,4.349l-0.057,0.017l-0.043,0.041    c-0.672,0.626-1.342,1.445-2.05,2.313c-0.356,0.436-0.718,0.879-1.088,1.306c-0.243,0.281-0.541,0.572-0.855,0.881    c-0.933,0.915-1.898,1.861-1.592,2.727l0.046,0.13l0.133,0.03C364.784,452.13,374.629,453.105,385.337,453.105 M351.939,488.787    c0.823,0,1.635-0.116,2.412-0.347c5.987-1.771,9.39-12.302,9.222-21.46c-0.149-8.083-2.971-13.608-7.55-14.781l-0.153-0.039    l-0.101,0.122c-0.883,1.065-1.817,2.132-2.806,3.261c-6.417,7.325-13.689,15.627-10.926,28.391l0.017,0.077l0.058,0.054    C344.43,486.219,348.018,488.787,351.939,488.787 M381.811,507.889c14.247,0,32.268-5.424,36.279-20.696    c0.107-0.063,0.186-0.172,0.196-0.293c0.012-0.147-0.076-0.337-0.364-0.385l-0.098-0.017l-0.083,0.055    c-7.964,5.302-20.461,8.221-35.189,8.221c-16.12,0-31.868-3.61-41.099-9.424l-0.538-0.339l0.163,0.615    C345.142,500.922,365.041,507.889,381.811,507.889 M424.361,378.761c-5.28,4.481-11.104,10.497-16.561,15.601    c-3.854,0.196-5.445,3.213-4.8,7.199c-6.493,11.987-12.281,24.68-18.96,36.48c-3.955,0.487-7.842,0.737-11.521,1.44    c-3.482,0.665-7.801,1.137-10.56,2.64c-1.094,0.596-2.373,2.434-3.6,3.84c-7.577,8.686-19.279,19.153-19.2,33.84    c0.091,16.793,16.324,24.97,31.2,27.84c4.045,0.78,8.097,1.17,12.053,1.17c19.646,0,36.839-9.605,38.107-28.529    c1.077-16.06-7.352-28.035-12.72-40.32c-3.588-1.452-8.023-2.057-12.96-2.16c4.581-11.179,9.452-22.067,13.92-33.359    c3.209-0.425,5.358-3.077,4.32-6.961c4.672-4.401,9.636-9.998,13.919-14.64c0.506-0.549,1.838-1.026,1.439-1.92    C427.367,379.914,425.832,379.368,424.361,378.761L424.361,378.761z M413.081,397.001c-1.068-1.252-2.091-2.55-4.32-2.64    c4.932-5.309,10.43-10.051,15.601-15.12c1.283,0.556,2.314,1.364,3.6,1.92C423.055,386.495,417.902,391.583,413.081,397.001    L413.081,397.001z M407.708,403.781c-0.354,0-0.723-0.02-1.107-0.061c-1.927-1.236-3.12-2.044-3.12-4.319    c0-2.808,2.498-4.363,4.914-4.363c2.206,0,4.342,1.298,4.447,4.123C412.945,402.006,411.042,403.781,407.708,403.781    L407.708,403.781z M386.604,437.843c-0.443,0-0.897-0.012-1.363-0.042c5.761-12.158,12.134-23.706,18-35.76    c1.281,1.198,2.554,2.406,4.8,2.64c-4.509,11.172-9.225,22.136-13.92,33.12c-0.704-0.149-1.425-0.2-2.171-0.2    C390.322,437.601,388.572,437.843,386.604,437.843L386.604,437.843z M385.337,452.855c-10.092,0-20.151-0.889-28.417-2.814    c-0.343-0.97,1.448-2.262,2.4-3.36c1.096-1.265,2.122-2.67,3.12-3.6c7.844-2.301,18.65-4.339,28.997-4.339    c5.425,0,10.726,0.561,15.403,1.938c1.656,3.304,3.331,6.59,4.8,10.08C403.73,452.12,394.521,452.855,385.337,452.855    L385.337,452.855z M351.939,488.537c-3.58,0-7.044-2.228-9.659-4.656c-3.159-14.598,7.08-23.468,13.68-31.439    c11.55,2.959,8.392,32.78-1.68,35.76C353.5,488.432,352.717,488.537,351.939,488.537L351.939,488.537z M381.811,507.639    c-18.038,0-36.703-7.819-40.49-22.077c9.568,6.024,25.586,9.462,41.232,9.462c13.527,0,26.777-2.57,35.328-8.263    c0.272,0.046,0.133,0.24,0.001,0.24c0,0,0,0-0.001,0C414.261,501.111,398.298,507.639,381.811,507.639L381.811,507.639z"
   id="path3085" />
	</g>
	<path
   fill-rule="evenodd"
   clip-rule="evenodd"
   fill="#999999"
   d="M427.961,381.161c-4.906,5.334-10.059,10.422-14.88,15.84   c-1.068-1.252-2.091-2.55-4.32-2.64c4.932-5.309,10.43-10.051,15.601-15.12C425.645,379.797,426.676,380.605,427.961,381.161z"
   id="path3087" />
	<path
   fill-rule="evenodd"
   clip-rule="evenodd"
   fill="#CCCCCC"
   d="M406.6,403.721c-1.927-1.236-3.12-2.044-3.12-4.319   c0-5.37,9.142-6.161,9.36-0.24C412.957,402.307,410.617,404.146,406.6,403.721z"
   id="path3089" />
	<path
   fill-rule="evenodd"
   clip-rule="evenodd"
   fill="#999999"
   d="M403.241,402.041c1.281,1.198,2.554,2.406,4.8,2.64   c-4.509,11.172-9.225,22.136-13.92,33.12c-2.583-0.548-5.391,0.226-8.88,0C391.001,425.643,397.374,414.095,403.241,402.041z"
   id="path3091" />
	<path
   fill-rule="evenodd"
   clip-rule="evenodd"
   fill="#CCCCCC"
   d="M406.84,440.681c1.656,3.304,3.331,6.59,4.8,10.08   c-16.601,2.853-38.933,2.959-54.72-0.72c-0.343-0.97,1.448-2.262,2.4-3.36c1.096-1.265,2.122-2.67,3.12-3.6   C374.397,439.574,393.243,436.676,406.84,440.681z"
   id="path3093" />
	<path
   fill-rule="evenodd"
   clip-rule="evenodd"
   fill="#E6E6E6"
   d="M355.96,452.441c11.55,2.959,8.392,32.78-1.68,35.76   c-4.376,1.294-8.817-1.364-12-4.32C339.121,469.283,349.36,460.413,355.96,452.441z"
   id="path3095" />
	<path
   fill-rule="evenodd"
   clip-rule="evenodd"
   d="M466.6,344.681c-12.195,0-25.271-0.104-34.318,2.16   c-1.488,0.372-2.982,0.755-3.842,2.16c-2.988-3.112-11.535-3.681-14.639-0.24c-8.534-4.157-22.316-4.08-35.28-4.08   c-13.017,0-26.517,0.251-34.8,4.08c-0.563,0.261-1.713,1.942-1.48,3.12c3.793,14.406,19.75,25.989,38.68,24.72   c16.337-1.095,29.831-11.495,32.64-25.92c2.742-0.716,5.594-2.065,8.879-1.68c2.406,0.282,4.338,1.674,6.24,2.159   c0.074,1.766,0.328,3.428,0.961,5.041c4.578,11.691,20.354,21.591,36.721,20.399c16.006-1.165,29.104-11.106,32.398-24.96   c0.082-0.029-0.078-2.961-0.238-2.88C491.225,345.075,478.869,344.681,466.6,344.681z M400.6,366.761   c-5.424,3.914-12.251,6.682-20.4,6.48c-14.252-0.353-26.721-9.202-29.28-22.081c5.657-2.718,13.179-2.521,20.88-2.879   c13.409-0.624,28.465-0.285,39.36,2.16C411.039,358.015,405.88,362.951,400.6,366.761z M462.041,373.241   c-8.199,0.308-15.113-2.521-20.641-6.48c-5.297-3.796-10.422-8.745-10.561-16.319c5.99-1.678,13.293-1.808,20.881-2.16   c13.777-0.641,29.063-0.716,39.359,2.879C488.691,363.822,476.361,372.703,462.041,373.241z"
   id="path3097" />
	<path
   fill-rule="evenodd"
   clip-rule="evenodd"
   fill="#0188AA"
   d="M579.16,260.201c-1.377-0.79-4.408-2.017-4.799-3.36   c-0.559-1.913,0.758-6.961,0.959-9.36c0.822-9.767,0.945-20.564,0-29.76c-3.818-37.135-19.225-64.793-38.16-86.88   c-25.336-29.555-62.002-50.16-114.24-52.56h-3.599c-7.358,0.18-14.648,0.923-21.36,1.92c-45.286,6.728-76.74,29.54-99.84,58.8   c-12.801,16.215-23.656,37.635-28.8,61.92c-5.195,24.524-4.134,56.744,4.08,79.92c-3.636,6.124-8.064,11.456-14.64,14.64   c7.025,0.146,13.7-0.06,19.68-0.96c14.515,32.847,37.705,58.296,67.92,74.641c-6.092-7.829-10.976-16.864-15.6-26.16l-10.32-22.08   c-5.173-11.835-10.08-24.649-14.64-36.48c13.097-8.982,23.425-20.735,30.48-35.76c25.012,17.689,54.415,32.548,87.36,43.2   c16.324,5.277,35.254,9.725,56.4,8.88c20.443-0.817,38.105-5.605,54.24-11.04c-5.447,13.924-11.688,30.482-18.48,43.439   c-3.619,6.904-13.99,28.011-19.92,36.001c36.775-20.744,63.008-52.032,75.359-97.201c4.592-2.928,9.539-5.5,13.441-9.12   C582.684,262.203,581.246,261.396,579.16,260.201z"
   id="path3099" />
	<path
   fill-rule="evenodd"
   clip-rule="evenodd"
   d="M383.32,319.48c1.752,10.379-6.477,19.08-16.08,18.48   c-7.697-0.48-15.006-6.84-14.16-17.52c-3.971,2.188-6.857,5.462-9.84,8.639c-0.216,0.759-0.724,1.055-0.24,1.921   c-3.741-1.813-7.326-4.215-10.8-6.48c-3.332-2.173-7.424-4.058-9.12-7.92c7.333-0.448,12.877,2.96,18.72,4.8   c-2.537-3.063-8.736-5.822-9.6-10.56c4.738-1.413,10.511,2.616,14.64,4.08c-0.392-1.729-3.818-3.646-3.36-6.24   c4.104,0.376,6.365,2.595,9.36,4.08c-0.536-1.624-1.958-2.362-1.92-4.56c2.486-0.305,5.252,1.13,7.44,1.92   c-0.192-1.328-1.26-1.78-1.2-3.36c3.817-0.101,5.954,1.757,9.84,1.681c11.913-0.237,20.05,10.618,24.72,18.239   c0.024,0.039,0.785,0.505,0.24,0.72C389.607,324.234,386.571,321.75,383.32,319.48z M355.72,321.4   c-2.555,8.063,11.661,5.761,7.2-0.959c-0.35-0.527-1.546-1.898-4.08-1.44C356.959,319.341,355.974,320.6,355.72,321.4z"
   id="path3101" />
	<path
   fill-rule="evenodd"
   clip-rule="evenodd"
   d="M489.16,312.761c3.119-1.441,5.316-3.804,9.6-4.08   c-0.305,3.056-2.486,4.233-3.84,6.24c4.781-1.475,9.58-5.169,15.121-4.32c-1.459,5.421-6.539,7.222-9.84,10.8   c5.883-1.799,11.379-5.256,18.719-4.8c-1.574,3.994-5.785,5.728-9.119,7.92c-3.379,2.222-6.879,4.472-10.32,6.48   c-2.1-4.86-6.248-7.672-10.32-10.56c0.824,10.136-6.967,18.104-16.32,17.52c-7.943-0.496-15.607-7.465-13.92-18.24   c-3.348,1.453-6.66,5.019-9.119,8.16c5.301-7.449,11.451-19.583,24.959-19.439c0.674,0.006,1.461,0.318,2.16,0.239   c2.551-0.29,4.771-2.315,7.92-2.16c0.236,1.835-0.855,2.344-1.199,3.601c2.268-0.709,4.932-2.244,7.439-1.92   C491.092,310.371,489.857,311.298,489.16,312.761z M466.6,326.681c1.025-0.261,2.977-1.937,2.641-4.56   c-0.305-2.387-2.229-3.471-4.561-3.12C458.84,319.877,461.336,328.021,466.6,326.681z"
   id="path3103" />
	<path
   fill-rule="evenodd"
   clip-rule="evenodd"
   fill="#CCCCCC"
   d="M417.88,486.761c0.272,0.046,0.133,0.241,0,0.24   c-7.579,29.548-69.311,25.85-76.56-1.439C359.16,496.795,399.439,499.036,417.88,486.761z"
   id="path3105" />
</g>
<ellipse
   fill="#E6E6E5"
   cx="407.445"
   cy="397.953"
   rx="2.625"
   ry="1.813"
   id="ellipse3107" />
<polyline
   fill="#CDCCCC"
   points="386.571,437.843 403.48,407.778 391.364,437.61 "
   id="polyline3109" />
</svg>